<svg xmlns="http://www.w3.org/2000/svg" width="240" height="320" viewBox="0 0 240 320">
  <rect width="240" height="320" fill="#e8edf5" rx="8"/>
  <rect x="20" y="20" width="200" height="280" fill="#d0d9ea" rx="6"/>
  <rect x="40" y="60" width="160" height="8" fill="#b0bcd4" rx="4"/>
  <rect x="40" y="80" width="120" height="6" fill="#c0cad8" rx="3"/>
  <rect x="40" y="96" width="140" height="6" fill="#c0cad8" rx="3"/>
  <g transform="translate(80,140)">
    <rect width="80" height="100" fill="#b0bcd4" rx="4"/>
    <rect x="6" y="10" width="68" height="4" fill="#9aaac0" rx="2"/>
    <rect x="6" y="20" width="50" height="4" fill="#9aaac0" rx="2"/>
    <rect x="6" y="30" width="60" height="4" fill="#9aaac0" rx="2"/>
    <rect x="6" y="40" width="45" height="4" fill="#9aaac0" rx="2"/>
    <rect x="6" y="50" width="58" height="4" fill="#9aaac0" rx="2"/>
    <rect x="6" y="60" width="40" height="4" fill="#9aaac0" rx="2"/>
    <rect x="6" y="70" width="55" height="4" fill="#9aaac0" rx="2"/>
    <rect x="6" y="80" width="48" height="4" fill="#9aaac0" rx="2"/>
  </g>
  <text x="120" y="270" font-family="sans-serif" font-size="11" fill="#8899bb" text-anchor="middle">No Cover Available</text>
</svg>
